<?xml version="1.0" encoding="utf-8" standalone="no"?>
<!DOCTYPE svg PUBLIC "-//W3C//DTD SVG 1.1//EN"
  "http://www.w3.org/Graphics/SVG/1.1/DTD/svg11.dtd">
<svg xmlns:xlink="http://www.w3.org/1999/xlink" width="184.6425pt" height="132.63375pt" viewBox="0 0 184.6425 132.63375" xmlns="http://www.w3.org/2000/svg" version="1.1">
 <metadata>
  <rdf:RDF xmlns:dc="http://purl.org/dc/elements/1.1/" xmlns:cc="http://creativecommons.org/ns#" xmlns:rdf="http://www.w3.org/1999/02/22-rdf-syntax-ns#">
   <cc:Work>
    <dc:type rdf:resource="http://purl.org/dc/dcmitype/StillImage"/>
    <dc:date>2024-07-30T22:26:37.624891</dc:date>
    <dc:format>image/svg+xml</dc:format>
    <dc:creator>
     <cc:Agent>
      <dc:title>Matplotlib v3.9.0, https://matplotlib.org/</dc:title>
     </cc:Agent>
    </dc:creator>
   </cc:Work>
  </rdf:RDF>
 </metadata>
 <defs>
  <style type="text/css">*{stroke-linejoin: round; stroke-linecap: butt}</style>
 </defs>
 <g id="figure_1">
  <g id="patch_1">
   <path d="M 0 132.63375 
L 184.6425 132.63375 
L 184.6425 0 
L 0 0 
z
" style="fill: #ffffff"/>
  </g>
  <g id="axes_1">
   <g id="patch_2">
    <path d="M 37.36625 71.08 
L 171.71625 71.08 
L 171.71625 7.2 
L 37.36625 7.2 
z
" style="fill: #ffffff"/>
   </g>
   <g id="PolyCollection_1">
    <defs>
     <path id="m0309ada815" d="M 37.36625 -122.530114 
L 37.36625 -122.530114 
L 38.261917 -122.530114 
L 38.261917 -108.415206 
L 40.05325 -108.415206 
L 40.05325 -106.619915 
L 48.11425 -106.619915 
L 48.11425 -101.649182 
L 66.027583 -101.649182 
L 66.027583 -99.191484 
L 67.818917 -99.191484 
L 67.818917 -96.799237 
L 68.714583 -96.799237 
L 68.714583 -96.799237 
L 69.61025 -96.799237 
L 69.61025 -94.278853 
L 76.775583 -94.278853 
L 76.775583 -91.854853 
L 77.67125 -91.854853 
L 77.67125 -89.516259 
L 79.462583 -89.516259 
L 79.462583 -89.516259 
L 84.836583 -89.516259 
L 84.836583 -86.765828 
L 91.10625 -86.765828 
L 91.10625 -86.765828 
L 92.001917 -86.765828 
L 92.001917 -83.844365 
L 92.897583 -83.844365 
L 92.897583 -83.844365 
L 96.48025 -83.844365 
L 96.48025 -80.713545 
L 104.54125 -80.713545 
L 104.54125 -80.713545 
L 105.436917 -80.713545 
L 105.436917 -80.713545 
L 106.332583 -80.713545 
L 106.332583 -80.713545 
L 120.66325 -80.713545 
L 120.66325 -71.641297 
L 125.141583 -71.641297 
L 125.141583 -71.641297 
L 127.828583 -71.641297 
L 127.828583 -71.641297 
L 146.637583 -71.641297 
L 146.637583 -65.270584 
L 169.924917 -65.270584 
L 169.924917 -64.457386 
L 169.924917 -64.457386 
L 169.924917 -64.457386 
L 169.924917 -91.65768 
L 146.637583 -91.65768 
L 146.637583 -96.794175 
L 127.828583 -96.794175 
L 127.828583 -96.794175 
L 125.141583 -96.794175 
L 125.141583 -96.794175 
L 120.66325 -96.794175 
L 120.66325 -103.948771 
L 106.332583 -103.948771 
L 106.332583 -103.948771 
L 105.436917 -103.948771 
L 105.436917 -103.948771 
L 104.54125 -103.948771 
L 104.54125 -103.948771 
L 96.48025 -103.948771 
L 96.48025 -106.498189 
L 92.897583 -106.498189 
L 92.897583 -106.498189 
L 92.001917 -106.498189 
L 92.001917 -108.785469 
L 91.10625 -108.785469 
L 91.10625 -108.785469 
L 84.836583 -108.785469 
L 84.836583 -110.860479 
L 79.462583 -110.860479 
L 79.462583 -110.860479 
L 77.67125 -110.860479 
L 77.67125 -112.684054 
L 76.775583 -112.684054 
L 76.775583 -114.429143 
L 69.61025 -114.429143 
L 69.61025 -116.087062 
L 68.714583 -116.087062 
L 68.714583 -116.087062 
L 67.818917 -116.087062 
L 67.818917 -117.598384 
L 66.027583 -117.598384 
L 66.027583 -119.00474 
L 48.11425 -119.00474 
L 48.11425 -121.379565 
L 40.05325 -121.379565 
L 40.05325 -122.2102 
L 38.261917 -122.2102 
L 38.261917 -122.530114 
L 37.36625 -122.530114 
z
" style="stroke: #66c2a5; stroke-opacity: 0.25"/>
    </defs>
    <g clip-path="url(#p76ba835ddf)">
     <use xlink:href="#m0309ada815" x="0" y="132.63375" style="fill: #66c2a5; fill-opacity: 0.25; stroke: #66c2a5; stroke-opacity: 0.25"/>
    </g>
   </g>
   <g id="PolyCollection_2">
    <defs>
     <path id="m82fb8ddebc" d="M 37.36625 -122.418923 
L 37.36625 -117.183307 
L 38.261917 -117.183307 
L 38.261917 -116.503925 
L 39.157583 -116.503925 
L 39.157583 -110.531093 
L 40.05325 -110.531093 
L 40.05325 -105.003452 
L 40.948917 -105.003452 
L 40.948917 -102.367904 
L 41.844583 -102.367904 
L 41.844583 -100.648373 
L 42.74025 -100.648373 
L 42.74025 -99.755834 
L 43.635917 -99.755834 
L 43.635917 -97.994285 
L 44.531583 -97.994285 
L 44.531583 -95.405674 
L 47.218583 -95.405674 
L 47.218583 -93.712778 
L 48.11425 -93.712778 
L 48.11425 -92.044458 
L 49.905583 -92.044458 
L 49.905583 -92.044458 
L 51.696917 -92.044458 
L 51.696917 -91.166589 
L 53.48825 -91.166589 
L 53.48825 -91.166589 
L 55.279583 -91.166589 
L 55.279583 -90.266906 
L 56.17525 -90.266906 
L 56.17525 -89.375374 
L 57.070917 -89.375374 
L 57.070917 -89.375374 
L 57.966583 -89.375374 
L 57.966583 -87.552817 
L 58.86225 -87.552817 
L 58.86225 -85.765105 
L 60.653583 -85.765105 
L 60.653583 -84.883972 
L 61.54925 -84.883972 
L 61.54925 -84.883972 
L 62.444917 -84.883972 
L 62.444917 -83.071725 
L 65.131917 -83.071725 
L 65.131917 -82.180115 
L 66.92325 -82.180115 
L 66.92325 -79.433934 
L 69.61025 -79.433934 
L 69.61025 -78.541661 
L 72.29725 -78.541661 
L 72.29725 -77.661133 
L 73.192917 -77.661133 
L 73.192917 -77.661133 
L 74.088583 -77.661133 
L 74.088583 -76.733933 
L 74.98425 -76.733933 
L 74.98425 -75.822011 
L 75.879917 -75.822011 
L 75.879917 -74.045513 
L 82.149583 -74.045513 
L 82.149583 -73.182022 
L 83.04525 -73.182022 
L 83.04525 -72.251295 
L 83.940917 -72.251295 
L 83.940917 -71.237448 
L 90.210583 -71.237448 
L 90.210583 -69.929656 
L 94.688917 -69.929656 
L 94.688917 -68.719748 
L 98.271583 -68.719748 
L 98.271583 -67.612318 
L 103.645583 -67.612318 
L 103.645583 -66.617292 
L 118.871917 -66.617292 
L 118.871917 -65.752893 
L 119.767583 -65.752893 
L 119.767583 -65.052588 
L 129.619917 -65.052588 
L 129.619917 -64.583166 
L 134.09825 -64.583166 
L 134.09825 -64.457386 
L 134.09825 -64.457386 
L 134.09825 -64.457386 
L 134.09825 -71.150867 
L 129.619917 -71.150867 
L 129.619917 -73.171434 
L 119.767583 -73.171434 
L 119.767583 -75.073073 
L 118.871917 -75.073073 
L 118.871917 -76.856736 
L 103.645583 -76.856736 
L 103.645583 -78.542433 
L 98.271583 -78.542433 
L 98.271583 -80.143891 
L 94.688917 -80.143891 
L 94.688917 -81.669487 
L 90.210583 -81.669487 
L 90.210583 -83.123675 
L 83.940917 -83.123675 
L 83.940917 -84.375488 
L 83.04525 -84.375488 
L 83.04525 -85.538411 
L 82.149583 -85.538411 
L 82.149583 -86.628953 
L 75.879917 -86.628953 
L 75.879917 -88.769344 
L 74.98425 -88.769344 
L 74.98425 -89.820305 
L 74.088583 -89.820305 
L 74.088583 -90.859012 
L 73.192917 -90.859012 
L 73.192917 -90.859012 
L 72.29725 -90.859012 
L 72.29725 -91.849427 
L 69.61025 -91.849427 
L 69.61025 -92.830139 
L 66.92325 -92.830139 
L 66.92325 -95.715835 
L 65.131917 -95.715835 
L 65.131917 -96.632627 
L 62.444917 -96.632627 
L 62.444917 -98.442422 
L 61.54925 -98.442422 
L 61.54925 -98.442422 
L 60.653583 -98.442422 
L 60.653583 -99.313157 
L 58.86225 -99.313157 
L 58.86225 -101.033441 
L 57.966583 -101.033441 
L 57.966583 -102.725191 
L 57.070917 -102.725191 
L 57.070917 -102.725191 
L 56.17525 -102.725191 
L 56.17525 -103.542621 
L 55.279583 -103.542621 
L 55.279583 -104.353315 
L 53.48825 -104.353315 
L 53.48825 -104.353315 
L 51.696917 -104.353315 
L 51.696917 -105.141432 
L 49.905583 -105.141432 
L 49.905583 -105.141432 
L 48.11425 -105.141432 
L 48.11425 -106.64154 
L 47.218583 -106.64154 
L 47.218583 -108.118748 
L 44.531583 -108.118748 
L 44.531583 -110.288901 
L 43.635917 -110.288901 
L 43.635917 -111.702763 
L 42.74025 -111.702763 
L 42.74025 -112.398997 
L 41.844583 -112.398997 
L 41.844583 -113.729997 
L 40.948917 -113.729997 
L 40.948917 -115.66836 
L 40.05325 -115.66836 
L 40.05325 -119.26713 
L 39.157583 -119.26713 
L 39.157583 -122.133552 
L 38.261917 -122.133552 
L 38.261917 -122.418923 
L 37.36625 -122.418923 
z
" style="stroke: #fc8d62; stroke-opacity: 0.25"/>
    </defs>
    <g clip-path="url(#p76ba835ddf)">
     <use xlink:href="#m82fb8ddebc" x="0" y="132.63375" style="fill: #fc8d62; fill-opacity: 0.25; stroke: #fc8d62; stroke-opacity: 0.25"/>
    </g>
   </g>
   <g id="matplotlib.axis_1">
    <g id="xtick_1">
     <g id="line2d_1">
      <defs>
       <path id="m93100d044c" d="M 0 0 
L 0 3.5 
" style="stroke: #000000; stroke-width: 0.8"/>
      </defs>
      <g>
       <use xlink:href="#m93100d044c" x="37.36625" y="71.08" style="stroke: #000000; stroke-width: 0.8"/>
      </g>
     </g>
     <g id="text_1">
      <text style="font: 6px 'DejaVu Sans', 'Bitstream Vera Sans', 'Computer Modern Sans Serif', 'Lucida Grande', 'Verdana', 'Geneva', 'Lucid', 'Arial', 'Helvetica', 'Avant Garde', sans-serif; text-anchor: middle" x="37.36625" y="82.639063" transform="rotate(-0 37.36625 82.639063)">0</text>
     </g>
    </g>
    <g id="xtick_2">
     <g id="line2d_2">
      <g>
       <use xlink:href="#m93100d044c" x="59.757917" y="71.08" style="stroke: #000000; stroke-width: 0.8"/>
      </g>
     </g>
     <g id="text_2">
      <text style="font: 6px 'DejaVu Sans', 'Bitstream Vera Sans', 'Computer Modern Sans Serif', 'Lucida Grande', 'Verdana', 'Geneva', 'Lucid', 'Arial', 'Helvetica', 'Avant Garde', sans-serif; text-anchor: middle" x="59.757917" y="82.639063" transform="rotate(-0 59.757917 82.639063)">25</text>
     </g>
    </g>
    <g id="xtick_3">
     <g id="line2d_3">
      <g>
       <use xlink:href="#m93100d044c" x="82.149583" y="71.08" style="stroke: #000000; stroke-width: 0.8"/>
      </g>
     </g>
     <g id="text_3">
      <text style="font: 6px 'DejaVu Sans', 'Bitstream Vera Sans', 'Computer Modern Sans Serif', 'Lucida Grande', 'Verdana', 'Geneva', 'Lucid', 'Arial', 'Helvetica', 'Avant Garde', sans-serif; text-anchor: middle" x="82.149583" y="82.639063" transform="rotate(-0 82.149583 82.639063)">50</text>
     </g>
    </g>
    <g id="xtick_4">
     <g id="line2d_4">
      <g>
       <use xlink:href="#m93100d044c" x="104.54125" y="71.08" style="stroke: #000000; stroke-width: 0.8"/>
      </g>
     </g>
     <g id="text_4">
      <text style="font: 6px 'DejaVu Sans', 'Bitstream Vera Sans', 'Computer Modern Sans Serif', 'Lucida Grande', 'Verdana', 'Geneva', 'Lucid', 'Arial', 'Helvetica', 'Avant Garde', sans-serif; text-anchor: middle" x="104.54125" y="82.639063" transform="rotate(-0 104.54125 82.639063)">75</text>
     </g>
    </g>
    <g id="xtick_5">
     <g id="line2d_5">
      <g>
       <use xlink:href="#m93100d044c" x="126.932917" y="71.08" style="stroke: #000000; stroke-width: 0.8"/>
      </g>
     </g>
     <g id="text_5">
      <text style="font: 6px 'DejaVu Sans', 'Bitstream Vera Sans', 'Computer Modern Sans Serif', 'Lucida Grande', 'Verdana', 'Geneva', 'Lucid', 'Arial', 'Helvetica', 'Avant Garde', sans-serif; text-anchor: middle" x="126.932917" y="82.639063" transform="rotate(-0 126.932917 82.639063)">100</text>
     </g>
    </g>
    <g id="xtick_6">
     <g id="line2d_6">
      <g>
       <use xlink:href="#m93100d044c" x="149.324583" y="71.08" style="stroke: #000000; stroke-width: 0.8"/>
      </g>
     </g>
     <g id="text_6">
      <text style="font: 6px 'DejaVu Sans', 'Bitstream Vera Sans', 'Computer Modern Sans Serif', 'Lucida Grande', 'Verdana', 'Geneva', 'Lucid', 'Arial', 'Helvetica', 'Avant Garde', sans-serif; text-anchor: middle" x="149.324583" y="82.639063" transform="rotate(-0 149.324583 82.639063)">125</text>
     </g>
    </g>
    <g id="xtick_7">
     <g id="line2d_7">
      <g>
       <use xlink:href="#m93100d044c" x="171.71625" y="71.08" style="stroke: #000000; stroke-width: 0.8"/>
      </g>
     </g>
     <g id="text_7">
      <text style="font: 6px 'DejaVu Sans', 'Bitstream Vera Sans', 'Computer Modern Sans Serif', 'Lucida Grande', 'Verdana', 'Geneva', 'Lucid', 'Arial', 'Helvetica', 'Avant Garde', sans-serif; text-anchor: middle" x="171.71625" y="82.639063" transform="rotate(-0 171.71625 82.639063)">150</text>
     </g>
    </g>
    <g id="text_8">
     <text style="font: 6px 'DejaVu Sans', 'Bitstream Vera Sans', 'Computer Modern Sans Serif', 'Lucida Grande', 'Verdana', 'Geneva', 'Lucid', 'Arial', 'Helvetica', 'Avant Garde', sans-serif; text-anchor: middle" x="104.54125" y="92.445938" transform="rotate(-0 104.54125 92.445938)">Time since diagnosis [months]</text>
    </g>
   </g>
   <g id="matplotlib.axis_2">
    <g id="ytick_1">
     <g id="line2d_8">
      <defs>
       <path id="m34947904fa" d="M 0 0 
L -3.5 0 
" style="stroke: #000000; stroke-width: 0.8"/>
      </defs>
      <g>
       <use xlink:href="#m34947904fa" x="37.36625" y="68.176364" style="stroke: #000000; stroke-width: 0.8"/>
      </g>
     </g>
     <g id="text_9">
      <text style="font: 6px 'DejaVu Sans', 'Bitstream Vera Sans', 'Computer Modern Sans Serif', 'Lucida Grande', 'Verdana', 'Geneva', 'Lucid', 'Arial', 'Helvetica', 'Avant Garde', sans-serif; text-anchor: end" x="30.36625" y="70.455895" transform="rotate(-0 30.36625 70.455895)">0.00</text>
     </g>
    </g>
    <g id="ytick_2">
     <g id="line2d_9">
      <g>
       <use xlink:href="#m34947904fa" x="37.36625" y="53.658182" style="stroke: #000000; stroke-width: 0.8"/>
      </g>
     </g>
     <g id="text_10">
      <text style="font: 6px 'DejaVu Sans', 'Bitstream Vera Sans', 'Computer Modern Sans Serif', 'Lucida Grande', 'Verdana', 'Geneva', 'Lucid', 'Arial', 'Helvetica', 'Avant Garde', sans-serif; text-anchor: end" x="30.36625" y="55.937713" transform="rotate(-0 30.36625 55.937713)">0.25</text>
     </g>
    </g>
    <g id="ytick_3">
     <g id="line2d_10">
      <g>
       <use xlink:href="#m34947904fa" x="37.36625" y="39.14" style="stroke: #000000; stroke-width: 0.8"/>
      </g>
     </g>
     <g id="text_11">
      <text style="font: 6px 'DejaVu Sans', 'Bitstream Vera Sans', 'Computer Modern Sans Serif', 'Lucida Grande', 'Verdana', 'Geneva', 'Lucid', 'Arial', 'Helvetica', 'Avant Garde', sans-serif; text-anchor: end" x="30.36625" y="41.419531" transform="rotate(-0 30.36625 41.419531)">0.50</text>
     </g>
    </g>
    <g id="ytick_4">
     <g id="line2d_11">
      <g>
       <use xlink:href="#m34947904fa" x="37.36625" y="24.621818" style="stroke: #000000; stroke-width: 0.8"/>
      </g>
     </g>
     <g id="text_12">
      <text style="font: 6px 'DejaVu Sans', 'Bitstream Vera Sans', 'Computer Modern Sans Serif', 'Lucida Grande', 'Verdana', 'Geneva', 'Lucid', 'Arial', 'Helvetica', 'Avant Garde', sans-serif; text-anchor: end" x="30.36625" y="26.901349" transform="rotate(-0 30.36625 26.901349)">0.75</text>
     </g>
    </g>
    <g id="ytick_5">
     <g id="line2d_12">
      <g>
       <use xlink:href="#m34947904fa" x="37.36625" y="10.103636" style="stroke: #000000; stroke-width: 0.8"/>
      </g>
     </g>
     <g id="text_13">
      <text style="font: 6px 'DejaVu Sans', 'Bitstream Vera Sans', 'Computer Modern Sans Serif', 'Lucida Grande', 'Verdana', 'Geneva', 'Lucid', 'Arial', 'Helvetica', 'Avant Garde', sans-serif; text-anchor: end" x="30.36625" y="12.383168" transform="rotate(-0 30.36625 12.383168)">1.00</text>
     </g>
    </g>
    <g id="text_14">
     <text style="font: 6px 'DejaVu Sans', 'Bitstream Vera Sans', 'Computer Modern Sans Serif', 'Lucida Grande', 'Verdana', 'Geneva', 'Lucid', 'Arial', 'Helvetica', 'Avant Garde', sans-serif; text-anchor: middle" x="11.759063" y="39.14" transform="rotate(-90 11.759063 39.14)">Overall survival</text>
    </g>
   </g>
   <g id="line2d_13">
    <path d="M 37.36625 10.103636 
L 38.261917 10.103636 
L 38.261917 12.337203 
L 40.05325 12.337203 
L 40.05325 14.570769 
L 48.11425 14.570769 
L 48.11425 19.037902 
L 66.027583 19.037902 
L 66.027583 21.271469 
L 67.818917 21.271469 
L 67.818917 23.505035 
L 68.714583 23.505035 
L 68.714583 23.505035 
L 69.61025 23.505035 
L 69.61025 25.856158 
L 76.775583 25.856158 
L 76.775583 28.20728 
L 77.67125 28.20728 
L 77.67125 30.558403 
L 79.462583 30.558403 
L 79.462583 30.558403 
L 84.836583 30.558403 
L 84.836583 33.2454 
L 91.10625 33.2454 
L 91.10625 33.2454 
L 92.001917 33.2454 
L 92.001917 36.156314 
L 92.897583 36.156314 
L 92.897583 36.156314 
L 96.48025 36.156314 
L 96.48025 39.358319 
L 104.54125 39.358319 
L 104.54125 39.358319 
L 105.436917 39.358319 
L 105.436917 39.358319 
L 106.332583 39.358319 
L 106.332583 39.358319 
L 120.66325 39.358319 
L 120.66325 48.964334 
L 125.141583 48.964334 
L 125.141583 48.964334 
L 127.828583 48.964334 
L 127.828583 48.964334 
L 146.637583 48.964334 
L 146.637583 58.570349 
L 169.924917 58.570349 
L 169.924917 68.176364 
" clip-path="url(#p76ba835ddf)" style="fill: none; stroke: #66c2a5; stroke-linecap: square"/>
   </g>
   <g id="line2d_14">
    <path d="M 37.36625 10.888403 
L 38.261917 10.888403 
L 38.261917 11.67317 
L 39.157583 11.67317 
L 39.157583 16.448087 
L 40.05325 16.448087 
L 40.05325 21.223005 
L 40.948917 21.223005 
L 40.948917 23.610464 
L 41.844583 23.610464 
L 41.844583 25.202103 
L 42.74025 25.202103 
L 42.74025 26.028531 
L 43.635917 26.028531 
L 43.635917 27.681388 
L 44.531583 27.681388 
L 44.531583 30.160672 
L 47.218583 30.160672 
L 47.218583 31.813528 
L 48.11425 31.813528 
L 48.11425 33.466384 
L 49.905583 33.466384 
L 49.905583 33.466384 
L 51.696917 33.466384 
L 51.696917 34.334134 
L 53.48825 34.334134 
L 53.48825 34.334134 
L 55.279583 34.334134 
L 55.279583 35.224719 
L 56.17525 35.224719 
L 56.17525 36.115304 
L 57.070917 36.115304 
L 57.070917 36.115304 
L 57.966583 36.115304 
L 57.966583 37.947364 
L 58.86225 37.947364 
L 58.86225 39.779425 
L 60.653583 39.779425 
L 60.653583 40.695455 
L 61.54925 40.695455 
L 61.54925 40.695455 
L 62.444917 40.695455 
L 62.444917 42.59069 
L 65.131917 42.59069 
L 65.131917 43.538308 
L 66.92325 43.538308 
L 66.92325 46.494874 
L 69.61025 46.494874 
L 69.61025 47.480397 
L 72.29725 47.480397 
L 72.29725 48.465919 
L 73.192917 48.465919 
L 73.192917 48.465919 
L 74.088583 48.465919 
L 74.088583 49.503311 
L 74.98425 49.503311 
L 74.98425 50.540703 
L 75.879917 50.540703 
L 75.879917 52.615486 
L 82.149583 52.615486 
L 82.149583 53.652878 
L 83.04525 53.652878 
L 83.04525 54.770069 
L 83.940917 54.770069 
L 83.940917 55.988823 
L 90.210583 55.988823 
L 90.210583 57.512266 
L 94.688917 57.512266 
L 94.688917 59.035708 
L 98.271583 59.035708 
L 98.271583 60.559151 
L 103.645583 60.559151 
L 103.645583 62.082593 
L 118.871917 62.082593 
L 118.871917 63.606036 
L 119.767583 63.606036 
L 119.767583 65.129479 
L 129.619917 65.129479 
L 129.619917 66.652921 
L 134.09825 66.652921 
L 134.09825 68.176364 
" clip-path="url(#p76ba835ddf)" style="fill: none; stroke: #fc8d62; stroke-linecap: square"/>
   </g>
   <g id="patch_3">
    <path d="M 37.36625 71.08 
L 37.36625 7.2 
" style="fill: none; stroke: #000000; stroke-width: 0.8; stroke-linejoin: miter; stroke-linecap: square"/>
   </g>
   <g id="patch_4">
    <path d="M 37.36625 71.08 
L 171.71625 71.08 
" style="fill: none; stroke: #000000; stroke-width: 0.8; stroke-linejoin: miter; stroke-linecap: square"/>
   </g>
   <g id="text_15">
    <!-- $p\leq$0.001 (***) -->
    <g transform="translate(82.149583 15.910909)">
     <text>
      <tspan style="font: oblique 6px 'DejaVu Sans'" x="0" y="-0.453125">p</tspan>
      <tspan style="font: 6px 'DejaVu Sans'" x="4.977539 11.173828 14.991211 16.898438 20.71582 24.533203 28.350586 30.257812 32.598633 35.598633 38.598633 41.598633" y="-0.453125">≤0.001 (***)</tspan>
     </text>
    </g>
   </g>
   <g id="legend_1">
    <g id="line2d_15">
     <path d="M 56.925625 110.879063 
L 62.925625 110.879063 
L 62.925625 110.879063 
L 68.925625 110.879063 
L 68.925625 110.879063 
" style="fill: none; stroke: #66c2a5; stroke-linecap: square"/>
    </g>
    <g id="text_16">
     <text style="font: 6px 'DejaVu Sans', 'Bitstream Vera Sans', 'Computer Modern Sans Serif', 'Lucida Grande', 'Verdana', 'Geneva', 'Lucid', 'Arial', 'Helvetica', 'Avant Garde', sans-serif; text-anchor: start" x="73.725625" y="112.979063" transform="rotate(-0 73.725625 112.979063)">pred. no adjuvant therapy</text>
    </g>
    <g id="line2d_16">
     <path d="M 56.925625 119.685938 
L 62.925625 119.685938 
L 62.925625 119.685938 
L 68.925625 119.685938 
L 68.925625 119.685938 
" style="fill: none; stroke: #fc8d62; stroke-linecap: square"/>
    </g>
    <g id="text_17">
     <text style="font: 6px 'DejaVu Sans', 'Bitstream Vera Sans', 'Computer Modern Sans Serif', 'Lucida Grande', 'Verdana', 'Geneva', 'Lucid', 'Arial', 'Helvetica', 'Avant Garde', sans-serif; text-anchor: start" x="73.725625" y="121.785938" transform="rotate(-0 73.725625 121.785938)">pred. adjuvant therapy</text>
    </g>
   </g>
  </g>
 </g>
 <defs>
  <clipPath id="p76ba835ddf">
   <rect x="37.36625" y="7.2" width="134.35" height="63.88"/>
  </clipPath>
 </defs>
</svg>
