<?xml version="1.0" encoding="utf-8" standalone="no"?>
<!DOCTYPE svg PUBLIC "-//W3C//DTD SVG 1.1//EN"
  "http://www.w3.org/Graphics/SVG/1.1/DTD/svg11.dtd">
<svg xmlns:xlink="http://www.w3.org/1999/xlink" width="184.6425pt" height="132.63375pt" viewBox="0 0 184.6425 132.63375" xmlns="http://www.w3.org/2000/svg" version="1.1">
 <metadata>
  <rdf:RDF xmlns:dc="http://purl.org/dc/elements/1.1/" xmlns:cc="http://creativecommons.org/ns#" xmlns:rdf="http://www.w3.org/1999/02/22-rdf-syntax-ns#">
   <cc:Work>
    <dc:type rdf:resource="http://purl.org/dc/dcmitype/StillImage"/>
    <dc:date>2024-05-16T14:52:32.150622</dc:date>
    <dc:format>image/svg+xml</dc:format>
    <dc:creator>
     <cc:Agent>
      <dc:title>Matplotlib v3.8.4, https://matplotlib.org/</dc:title>
     </cc:Agent>
    </dc:creator>
   </cc:Work>
  </rdf:RDF>
 </metadata>
 <defs>
  <style type="text/css">*{stroke-linejoin: round; stroke-linecap: butt}</style>
 </defs>
 <g id="figure_1">
  <g id="patch_1">
   <path d="M 0 132.63375 
L 184.6425 132.63375 
L 184.6425 0 
L 0 0 
z
" style="fill: #ffffff"/>
  </g>
  <g id="axes_1">
   <g id="patch_2">
    <path d="M 37.36625 71.08 
L 171.71625 71.08 
L 171.71625 7.2 
L 37.36625 7.2 
z
" style="fill: #ffffff"/>
   </g>
   <g id="PolyCollection_1">
    <defs>
     <path id="m05649c7b66" d="M 37.36625 -122.530114 
L 37.36625 -122.530114 
L 40.05325 -122.530114 
L 40.05325 -108.415206 
L 48.11425 -108.415206 
L 48.11425 -104.154941 
L 66.027583 -104.154941 
L 66.027583 -101.649182 
L 68.714583 -101.649182 
L 68.714583 -101.649182 
L 69.61025 -101.649182 
L 69.61025 -98.984778 
L 76.775583 -98.984778 
L 76.775583 -96.428899 
L 77.67125 -96.428899 
L 77.67125 -93.966841 
L 79.462583 -93.966841 
L 79.462583 -93.966841 
L 84.836583 -93.966841 
L 84.836583 -91.119441 
L 91.10625 -91.119441 
L 91.10625 -91.119441 
L 92.001917 -91.119441 
L 92.001917 -88.134349 
L 92.897583 -88.134349 
L 92.897583 -88.134349 
L 96.48025 -88.134349 
L 96.48025 -84.983144 
L 103.645583 -84.983144 
L 103.645583 -82.059509 
L 104.54125 -82.059509 
L 104.54125 -82.059509 
L 105.436917 -82.059509 
L 105.436917 -82.059509 
L 106.332583 -82.059509 
L 106.332583 -82.059509 
L 119.767583 -82.059509 
L 119.767583 -77.520067 
L 120.66325 -77.520067 
L 120.66325 -70.562551 
L 125.141583 -70.562551 
L 125.141583 -70.562551 
L 127.828583 -70.562551 
L 127.828583 -70.562551 
L 146.637583 -70.562551 
L 146.637583 -65.200825 
L 169.924917 -65.200825 
L 169.924917 -64.457386 
L 169.924917 -64.457386 
L 169.924917 -64.457386 
L 169.924917 -89.934373 
L 146.637583 -89.934373 
L 146.637583 -95.042601 
L 127.828583 -95.042601 
L 127.828583 -95.042601 
L 125.141583 -95.042601 
L 125.141583 -95.042601 
L 120.66325 -95.042601 
L 120.66325 -102.422106 
L 119.767583 -102.422106 
L 119.767583 -105.566126 
L 106.332583 -105.566126 
L 106.332583 -105.566126 
L 105.436917 -105.566126 
L 105.436917 -105.566126 
L 104.54125 -105.566126 
L 104.54125 -105.566126 
L 103.645583 -105.566126 
L 103.645583 -108.01759 
L 96.48025 -108.01759 
L 96.48025 -110.336139 
L 92.897583 -110.336139 
L 92.897583 -110.336139 
L 92.001917 -110.336139 
L 92.001917 -112.426194 
L 91.10625 -112.426194 
L 91.10625 -112.426194 
L 84.836583 -112.426194 
L 84.836583 -114.321235 
L 79.462583 -114.321235 
L 79.462583 -114.321235 
L 77.67125 -114.321235 
L 77.67125 -115.985686 
L 76.775583 -115.985686 
L 76.775583 -117.55291 
L 69.61025 -117.55291 
L 69.61025 -119.00474 
L 68.714583 -119.00474 
L 68.714583 -119.00474 
L 66.027583 -119.00474 
L 66.027583 -120.280181 
L 48.11425 -120.280181 
L 48.11425 -122.2102 
L 40.05325 -122.2102 
L 40.05325 -122.530114 
L 37.36625 -122.530114 
z
" style="stroke: #66c2a5; stroke-opacity: 0.25"/>
    </defs>
    <g clip-path="url(#p539ca5c301)">
     <use xlink:href="#m05649c7b66" x="0" y="132.63375" style="fill: #66c2a5; fill-opacity: 0.25; stroke: #66c2a5; stroke-opacity: 0.25"/>
    </g>
   </g>
   <g id="PolyCollection_2">
    <defs>
     <path id="maec0f43ffb" d="M 37.36625 -122.418923 
L 37.36625 -117.183307 
L 38.261917 -117.183307 
L 38.261917 -115.53611 
L 39.157583 -115.53611 
L 39.157583 -109.597722 
L 40.05325 -109.597722 
L 40.05325 -104.129397 
L 40.948917 -104.129397 
L 40.948917 -101.515732 
L 41.844583 -101.515732 
L 41.844583 -99.809089 
L 42.74025 -99.809089 
L 42.74025 -98.922299 
L 43.635917 -98.922299 
L 43.635917 -97.171486 
L 44.531583 -97.171486 
L 44.531583 -94.597592 
L 47.218583 -94.597592 
L 47.218583 -92.913882 
L 48.11425 -92.913882 
L 48.11425 -91.254429 
L 49.905583 -91.254429 
L 49.905583 -91.254429 
L 51.696917 -91.254429 
L 51.696917 -90.379943 
L 53.48825 -90.379943 
L 53.48825 -90.379943 
L 55.279583 -90.379943 
L 55.279583 -89.483 
L 56.17525 -89.483 
L 56.17525 -88.594228 
L 57.070917 -88.594228 
L 57.070917 -88.594228 
L 57.966583 -88.594228 
L 57.966583 -86.775745 
L 58.86225 -86.775745 
L 58.86225 -84.992538 
L 60.653583 -84.992538 
L 60.653583 -84.113864 
L 61.54925 -84.113864 
L 61.54925 -84.113864 
L 62.444917 -84.113864 
L 62.444917 -82.304629 
L 65.131917 -82.304629 
L 65.131917 -81.414933 
L 66.92325 -81.414933 
L 66.92325 -78.671482 
L 67.818917 -78.671482 
L 67.818917 -77.781146 
L 69.61025 -77.781146 
L 69.61025 -76.90314 
L 72.29725 -76.90314 
L 72.29725 -76.037727 
L 73.192917 -76.037727 
L 73.192917 -76.037727 
L 74.088583 -76.037727 
L 74.088583 -75.120738 
L 74.98425 -75.120738 
L 74.98425 -74.220852 
L 75.879917 -74.220852 
L 75.879917 -72.474849 
L 82.149583 -72.474849 
L 82.149583 -71.630441 
L 83.04525 -71.630441 
L 83.04525 -70.708457 
L 83.940917 -70.708457 
L 83.940917 -69.6871 
L 90.210583 -69.6871 
L 90.210583 -68.274744 
L 94.688917 -68.274744 
L 94.688917 -67.035904 
L 98.271583 -67.035904 
L 98.271583 -65.982933 
L 118.871917 -65.982933 
L 118.871917 -65.147638 
L 129.619917 -65.147638 
L 129.619917 -64.600172 
L 134.09825 -64.600172 
L 134.09825 -64.457386 
L 134.09825 -64.457386 
L 134.09825 -64.457386 
L 134.09825 -71.733525 
L 129.619917 -71.733525 
L 129.619917 -73.875885 
L 118.871917 -73.875885 
L 118.871917 -75.859729 
L 98.271583 -75.859729 
L 98.271583 -77.688431 
L 94.688917 -77.688431 
L 94.688917 -79.381385 
L 90.210583 -79.381385 
L 90.210583 -80.948056 
L 83.940917 -80.948056 
L 83.940917 -82.26803 
L 83.04525 -82.26803 
L 83.04525 -83.480222 
L 82.149583 -83.480222 
L 82.149583 -84.607174 
L 75.879917 -84.607174 
L 75.879917 -86.814035 
L 74.98425 -86.814035 
L 74.98425 -87.895582 
L 74.088583 -87.895582 
L 74.088583 -88.963382 
L 73.192917 -88.963382 
L 73.192917 -88.963382 
L 72.29725 -88.963382 
L 72.29725 -89.977134 
L 69.61025 -89.977134 
L 69.61025 -90.980425 
L 67.818917 -90.980425 
L 67.818917 -91.973549 
L 66.92325 -91.973549 
L 66.92325 -94.894086 
L 65.131917 -94.894086 
L 65.131917 -95.820558 
L 62.444917 -95.820558 
L 62.444917 -97.649094 
L 61.54925 -97.649094 
L 61.54925 -97.649094 
L 60.653583 -97.649094 
L 60.653583 -98.528002 
L 58.86225 -98.528002 
L 58.86225 -100.264333 
L 57.966583 -100.264333 
L 57.966583 -101.971832 
L 57.070917 -101.971832 
L 57.070917 -101.971832 
L 56.17525 -101.971832 
L 56.17525 -102.796421 
L 55.279583 -102.796421 
L 55.279583 -103.61427 
L 53.48825 -103.61427 
L 53.48825 -103.61427 
L 51.696917 -103.61427 
L 51.696917 -104.409007 
L 49.905583 -104.409007 
L 49.905583 -104.409007 
L 48.11425 -104.409007 
L 48.11425 -105.920606 
L 47.218583 -105.920606 
L 47.218583 -107.409687 
L 44.531583 -107.409687 
L 44.531583 -109.598688 
L 43.635917 -109.598688 
L 43.635917 -111.02609 
L 42.74025 -111.02609 
L 42.74025 -111.72948 
L 41.844583 -111.72948 
L 41.844583 -113.074452 
L 40.948917 -113.074452 
L 40.948917 -115.036948 
L 40.05325 -115.036948 
L 40.05325 -118.706032 
L 39.157583 -118.706032 
L 39.157583 -121.760193 
L 38.261917 -121.760193 
L 38.261917 -122.418923 
L 37.36625 -122.418923 
z
" style="stroke: #fc8d62; stroke-opacity: 0.25"/>
    </defs>
    <g clip-path="url(#p539ca5c301)">
     <use xlink:href="#maec0f43ffb" x="0" y="132.63375" style="fill: #fc8d62; fill-opacity: 0.25; stroke: #fc8d62; stroke-opacity: 0.25"/>
    </g>
   </g>
   <g id="matplotlib.axis_1">
    <g id="xtick_1">
     <g id="line2d_1">
      <defs>
       <path id="m38947fc2c9" d="M 0 0 
L 0 3.5 
" style="stroke: #000000; stroke-width: 0.8"/>
      </defs>
      <g>
       <use xlink:href="#m38947fc2c9" x="37.36625" y="71.08" style="stroke: #000000; stroke-width: 0.8"/>
      </g>
     </g>
     <g id="text_1">
      <text style="font: 6px 'DejaVu Sans', 'Bitstream Vera Sans', 'Computer Modern Sans Serif', 'Lucida Grande', 'Verdana', 'Geneva', 'Lucid', 'Arial', 'Helvetica', 'Avant Garde', sans-serif; text-anchor: middle" x="37.36625" y="82.639063" transform="rotate(-0 37.36625 82.639063)">0</text>
     </g>
    </g>
    <g id="xtick_2">
     <g id="line2d_2">
      <g>
       <use xlink:href="#m38947fc2c9" x="59.757917" y="71.08" style="stroke: #000000; stroke-width: 0.8"/>
      </g>
     </g>
     <g id="text_2">
      <text style="font: 6px 'DejaVu Sans', 'Bitstream Vera Sans', 'Computer Modern Sans Serif', 'Lucida Grande', 'Verdana', 'Geneva', 'Lucid', 'Arial', 'Helvetica', 'Avant Garde', sans-serif; text-anchor: middle" x="59.757917" y="82.639063" transform="rotate(-0 59.757917 82.639063)">25</text>
     </g>
    </g>
    <g id="xtick_3">
     <g id="line2d_3">
      <g>
       <use xlink:href="#m38947fc2c9" x="82.149583" y="71.08" style="stroke: #000000; stroke-width: 0.8"/>
      </g>
     </g>
     <g id="text_3">
      <text style="font: 6px 'DejaVu Sans', 'Bitstream Vera Sans', 'Computer Modern Sans Serif', 'Lucida Grande', 'Verdana', 'Geneva', 'Lucid', 'Arial', 'Helvetica', 'Avant Garde', sans-serif; text-anchor: middle" x="82.149583" y="82.639063" transform="rotate(-0 82.149583 82.639063)">50</text>
     </g>
    </g>
    <g id="xtick_4">
     <g id="line2d_4">
      <g>
       <use xlink:href="#m38947fc2c9" x="104.54125" y="71.08" style="stroke: #000000; stroke-width: 0.8"/>
      </g>
     </g>
     <g id="text_4">
      <text style="font: 6px 'DejaVu Sans', 'Bitstream Vera Sans', 'Computer Modern Sans Serif', 'Lucida Grande', 'Verdana', 'Geneva', 'Lucid', 'Arial', 'Helvetica', 'Avant Garde', sans-serif; text-anchor: middle" x="104.54125" y="82.639063" transform="rotate(-0 104.54125 82.639063)">75</text>
     </g>
    </g>
    <g id="xtick_5">
     <g id="line2d_5">
      <g>
       <use xlink:href="#m38947fc2c9" x="126.932917" y="71.08" style="stroke: #000000; stroke-width: 0.8"/>
      </g>
     </g>
     <g id="text_5">
      <text style="font: 6px 'DejaVu Sans', 'Bitstream Vera Sans', 'Computer Modern Sans Serif', 'Lucida Grande', 'Verdana', 'Geneva', 'Lucid', 'Arial', 'Helvetica', 'Avant Garde', sans-serif; text-anchor: middle" x="126.932917" y="82.639063" transform="rotate(-0 126.932917 82.639063)">100</text>
     </g>
    </g>
    <g id="xtick_6">
     <g id="line2d_6">
      <g>
       <use xlink:href="#m38947fc2c9" x="149.324583" y="71.08" style="stroke: #000000; stroke-width: 0.8"/>
      </g>
     </g>
     <g id="text_6">
      <text style="font: 6px 'DejaVu Sans', 'Bitstream Vera Sans', 'Computer Modern Sans Serif', 'Lucida Grande', 'Verdana', 'Geneva', 'Lucid', 'Arial', 'Helvetica', 'Avant Garde', sans-serif; text-anchor: middle" x="149.324583" y="82.639063" transform="rotate(-0 149.324583 82.639063)">125</text>
     </g>
    </g>
    <g id="xtick_7">
     <g id="line2d_7">
      <g>
       <use xlink:href="#m38947fc2c9" x="171.71625" y="71.08" style="stroke: #000000; stroke-width: 0.8"/>
      </g>
     </g>
     <g id="text_7">
      <text style="font: 6px 'DejaVu Sans', 'Bitstream Vera Sans', 'Computer Modern Sans Serif', 'Lucida Grande', 'Verdana', 'Geneva', 'Lucid', 'Arial', 'Helvetica', 'Avant Garde', sans-serif; text-anchor: middle" x="171.71625" y="82.639063" transform="rotate(-0 171.71625 82.639063)">150</text>
     </g>
    </g>
    <g id="text_8">
     <text style="font: 6px 'DejaVu Sans', 'Bitstream Vera Sans', 'Computer Modern Sans Serif', 'Lucida Grande', 'Verdana', 'Geneva', 'Lucid', 'Arial', 'Helvetica', 'Avant Garde', sans-serif; text-anchor: middle" x="104.54125" y="92.445938" transform="rotate(-0 104.54125 92.445938)">Time since diagnosis [months]</text>
    </g>
   </g>
   <g id="matplotlib.axis_2">
    <g id="ytick_1">
     <g id="line2d_8">
      <defs>
       <path id="ma4e5386d10" d="M 0 0 
L -3.5 0 
" style="stroke: #000000; stroke-width: 0.8"/>
      </defs>
      <g>
       <use xlink:href="#ma4e5386d10" x="37.36625" y="68.176364" style="stroke: #000000; stroke-width: 0.8"/>
      </g>
     </g>
     <g id="text_9">
      <text style="font: 6px 'DejaVu Sans', 'Bitstream Vera Sans', 'Computer Modern Sans Serif', 'Lucida Grande', 'Verdana', 'Geneva', 'Lucid', 'Arial', 'Helvetica', 'Avant Garde', sans-serif; text-anchor: end" x="30.36625" y="70.455895" transform="rotate(-0 30.36625 70.455895)">0.00</text>
     </g>
    </g>
    <g id="ytick_2">
     <g id="line2d_9">
      <g>
       <use xlink:href="#ma4e5386d10" x="37.36625" y="53.658182" style="stroke: #000000; stroke-width: 0.8"/>
      </g>
     </g>
     <g id="text_10">
      <text style="font: 6px 'DejaVu Sans', 'Bitstream Vera Sans', 'Computer Modern Sans Serif', 'Lucida Grande', 'Verdana', 'Geneva', 'Lucid', 'Arial', 'Helvetica', 'Avant Garde', sans-serif; text-anchor: end" x="30.36625" y="55.937713" transform="rotate(-0 30.36625 55.937713)">0.25</text>
     </g>
    </g>
    <g id="ytick_3">
     <g id="line2d_10">
      <g>
       <use xlink:href="#ma4e5386d10" x="37.36625" y="39.14" style="stroke: #000000; stroke-width: 0.8"/>
      </g>
     </g>
     <g id="text_11">
      <text style="font: 6px 'DejaVu Sans', 'Bitstream Vera Sans', 'Computer Modern Sans Serif', 'Lucida Grande', 'Verdana', 'Geneva', 'Lucid', 'Arial', 'Helvetica', 'Avant Garde', sans-serif; text-anchor: end" x="30.36625" y="41.419531" transform="rotate(-0 30.36625 41.419531)">0.50</text>
     </g>
    </g>
    <g id="ytick_4">
     <g id="line2d_11">
      <g>
       <use xlink:href="#ma4e5386d10" x="37.36625" y="24.621818" style="stroke: #000000; stroke-width: 0.8"/>
      </g>
     </g>
     <g id="text_12">
      <text style="font: 6px 'DejaVu Sans', 'Bitstream Vera Sans', 'Computer Modern Sans Serif', 'Lucida Grande', 'Verdana', 'Geneva', 'Lucid', 'Arial', 'Helvetica', 'Avant Garde', sans-serif; text-anchor: end" x="30.36625" y="26.901349" transform="rotate(-0 30.36625 26.901349)">0.75</text>
     </g>
    </g>
    <g id="ytick_5">
     <g id="line2d_12">
      <g>
       <use xlink:href="#ma4e5386d10" x="37.36625" y="10.103636" style="stroke: #000000; stroke-width: 0.8"/>
      </g>
     </g>
     <g id="text_13">
      <text style="font: 6px 'DejaVu Sans', 'Bitstream Vera Sans', 'Computer Modern Sans Serif', 'Lucida Grande', 'Verdana', 'Geneva', 'Lucid', 'Arial', 'Helvetica', 'Avant Garde', sans-serif; text-anchor: end" x="30.36625" y="12.383168" transform="rotate(-0 30.36625 12.383168)">1.00</text>
     </g>
    </g>
    <g id="text_14">
     <text style="font: 6px 'DejaVu Sans', 'Bitstream Vera Sans', 'Computer Modern Sans Serif', 'Lucida Grande', 'Verdana', 'Geneva', 'Lucid', 'Arial', 'Helvetica', 'Avant Garde', sans-serif; text-anchor: middle" x="11.759063" y="39.14" transform="rotate(-90 11.759063 39.14)">Overall survival</text>
    </g>
   </g>
   <g id="line2d_13">
    <path d="M 37.36625 10.103636 
L 40.05325 10.103636 
L 40.05325 12.337203 
L 48.11425 12.337203 
L 48.11425 16.804336 
L 66.027583 16.804336 
L 66.027583 19.037902 
L 68.714583 19.037902 
L 68.714583 19.037902 
L 69.61025 19.037902 
L 69.61025 21.377829 
L 76.775583 21.377829 
L 76.775583 23.717756 
L 77.67125 23.717756 
L 77.67125 26.057682 
L 79.462583 26.057682 
L 79.462583 26.057682 
L 84.836583 26.057682 
L 84.836583 28.6901 
L 91.10625 28.6901 
L 91.10625 28.6901 
L 92.001917 28.6901 
L 92.001917 31.510547 
L 92.897583 31.510547 
L 92.897583 31.510547 
L 96.48025 31.510547 
L 96.48025 34.566032 
L 103.645583 34.566032 
L 103.645583 37.621517 
L 104.54125 37.621517 
L 104.54125 37.621517 
L 105.436917 37.621517 
L 105.436917 37.621517 
L 106.332583 37.621517 
L 106.332583 37.621517 
L 119.767583 37.621517 
L 119.767583 41.986495 
L 120.66325 41.986495 
L 120.66325 50.716451 
L 125.141583 50.716451 
L 125.141583 50.716451 
L 127.828583 50.716451 
L 127.828583 50.716451 
L 146.637583 50.716451 
L 146.637583 59.446407 
L 169.924917 59.446407 
L 169.924917 68.176364 
" clip-path="url(#p539ca5c301)" style="fill: none; stroke: #66c2a5; stroke-linecap: square"/>
   </g>
   <g id="line2d_14">
    <path d="M 37.36625 10.888403 
L 38.261917 10.888403 
L 38.261917 12.457936 
L 39.157583 12.457936 
L 39.157583 17.233801 
L 40.05325 17.233801 
L 40.05325 22.009667 
L 40.948917 22.009667 
L 40.948917 24.397599 
L 41.844583 24.397599 
L 41.844583 25.989554 
L 42.74025 25.989554 
L 42.74025 26.816747 
L 43.635917 26.816747 
L 43.635917 28.471131 
L 44.531583 28.471131 
L 44.531583 30.952708 
L 47.218583 30.952708 
L 47.218583 32.607093 
L 48.11425 32.607093 
L 48.11425 34.261478 
L 49.905583 34.261478 
L 49.905583 34.261478 
L 51.696917 34.261478 
L 51.696917 35.13109 
L 53.48825 35.13109 
L 53.48825 35.13109 
L 55.279583 35.13109 
L 55.279583 36.024206 
L 56.17525 36.024206 
L 56.17525 36.917321 
L 57.070917 36.917321 
L 57.070917 36.917321 
L 57.966583 36.917321 
L 57.966583 38.756088 
L 58.86225 38.756088 
L 58.86225 40.594856 
L 60.653583 40.594856 
L 60.653583 41.514239 
L 61.54925 41.514239 
L 61.54925 41.514239 
L 62.444917 41.514239 
L 62.444917 43.418677 
L 65.131917 43.418677 
L 65.131917 44.370895 
L 66.92325 44.370895 
L 66.92325 47.346579 
L 67.818917 47.346579 
L 67.818917 48.338473 
L 69.61025 48.338473 
L 69.61025 49.330368 
L 72.29725 49.330368 
L 72.29725 50.322262 
L 73.192917 50.322262 
L 73.192917 50.322262 
L 74.088583 50.322262 
L 74.088583 51.372504 
L 74.98425 51.372504 
L 74.98425 52.422745 
L 75.879917 52.422745 
L 75.879917 54.523227 
L 82.149583 54.523227 
L 82.149583 55.573469 
L 83.04525 55.573469 
L 83.04525 56.719186 
L 83.940917 56.719186 
L 83.940917 57.992206 
L 90.210583 57.992206 
L 90.210583 59.689566 
L 94.688917 59.689566 
L 94.688917 61.386925 
L 98.271583 61.386925 
L 98.271583 63.084285 
L 118.871917 63.084285 
L 118.871917 64.781644 
L 129.619917 64.781644 
L 129.619917 66.479004 
L 134.09825 66.479004 
L 134.09825 68.176364 
" clip-path="url(#p539ca5c301)" style="fill: none; stroke: #fc8d62; stroke-linecap: square"/>
   </g>
   <g id="patch_3">
    <path d="M 37.36625 71.08 
L 37.36625 7.2 
" style="fill: none; stroke: #000000; stroke-width: 0.8; stroke-linejoin: miter; stroke-linecap: square"/>
   </g>
   <g id="patch_4">
    <path d="M 37.36625 71.08 
L 171.71625 71.08 
" style="fill: none; stroke: #000000; stroke-width: 0.8; stroke-linejoin: miter; stroke-linecap: square"/>
   </g>
   <g id="text_15">
    <!-- $p\leq$0.001 (***) -->
    <g transform="translate(82.149583 15.910909)">
     <text>
      <tspan style="font: oblique 6px 'DejaVu Sans'" x="0" y="-0.453125">p</tspan>
      <tspan style="font: 6px 'DejaVu Sans'" x="4.977539 11.173828 14.991211 16.898438 20.71582 24.533203 28.350586 30.257812 32.598633 35.598633 38.598633 41.598633" y="-0.453125">≤0.001 (***)</tspan>
     </text>
    </g>
   </g>
   <g id="legend_1">
    <g id="line2d_15">
     <path d="M 56.925625 110.879063 
L 62.925625 110.879063 
L 62.925625 110.879063 
L 68.925625 110.879063 
L 68.925625 110.879063 
" style="fill: none; stroke: #66c2a5; stroke-linecap: square"/>
    </g>
    <g id="text_16">
     <text style="font: 6px 'DejaVu Sans', 'Bitstream Vera Sans', 'Computer Modern Sans Serif', 'Lucida Grande', 'Verdana', 'Geneva', 'Lucid', 'Arial', 'Helvetica', 'Avant Garde', sans-serif; text-anchor: start" x="73.725625" y="112.979063" transform="rotate(-0 73.725625 112.979063)">pred. no adjuvant therapy</text>
    </g>
    <g id="line2d_16">
     <path d="M 56.925625 119.685938 
L 62.925625 119.685938 
L 62.925625 119.685938 
L 68.925625 119.685938 
L 68.925625 119.685938 
" style="fill: none; stroke: #fc8d62; stroke-linecap: square"/>
    </g>
    <g id="text_17">
     <text style="font: 6px 'DejaVu Sans', 'Bitstream Vera Sans', 'Computer Modern Sans Serif', 'Lucida Grande', 'Verdana', 'Geneva', 'Lucid', 'Arial', 'Helvetica', 'Avant Garde', sans-serif; text-anchor: start" x="73.725625" y="121.785938" transform="rotate(-0 73.725625 121.785938)">pred. adjuvant therapy</text>
    </g>
   </g>
  </g>
 </g>
 <defs>
  <clipPath id="p539ca5c301">
   <rect x="37.36625" y="7.2" width="134.35" height="63.88"/>
  </clipPath>
 </defs>
</svg>
