<?xml version="1.0" encoding="utf-8" standalone="no"?>
<!DOCTYPE svg PUBLIC "-//W3C//DTD SVG 1.1//EN"
  "http://www.w3.org/Graphics/SVG/1.1/DTD/svg11.dtd">
<svg xmlns:xlink="http://www.w3.org/1999/xlink" width="89.806875pt" height="101.27775pt" viewBox="0 0 89.806875 101.27775" xmlns="http://www.w3.org/2000/svg" version="1.1">
 <metadata>
  <rdf:RDF xmlns:dc="http://purl.org/dc/elements/1.1/" xmlns:cc="http://creativecommons.org/ns#" xmlns:rdf="http://www.w3.org/1999/02/22-rdf-syntax-ns#">
   <cc:Work>
    <dc:type rdf:resource="http://purl.org/dc/dcmitype/StillImage"/>
    <dc:date>2024-05-16T14:52:30.640963</dc:date>
    <dc:format>image/svg+xml</dc:format>
    <dc:creator>
     <cc:Agent>
      <dc:title>Matplotlib v3.8.4, https://matplotlib.org/</dc:title>
     </cc:Agent>
    </dc:creator>
   </cc:Work>
  </rdf:RDF>
 </metadata>
 <defs>
  <style type="text/css">*{stroke-linejoin: round; stroke-linecap: butt}</style>
 </defs>
 <g id="figure_1">
  <g id="patch_1">
   <path d="M 0 101.27775 
L 89.806875 101.27775 
L 89.806875 0 
L 0 0 
z
" style="fill: #ffffff"/>
  </g>
  <g id="axes_1">
   <g id="patch_2">
    <path d="M 17.006875 84.270875 
L 82.606875 84.270875 
L 82.606875 18.670875 
L 17.006875 18.670875 
z
" style="fill: #ffffff"/>
   </g>
   <g id="PolyCollection_1">
    <defs>
     <path id="m66d61122aa" d="M 19.988693 -19.988693 
L 19.988693 -19.988693 
L 20.591081 -22.663856 
L 21.193468 -22.683737 
L 21.795856 -22.703278 
L 22.398243 -22.722477 
L 23.000631 -22.741336 
L 23.603018 -39.431675 
L 24.205406 -39.478625 
L 24.807793 -39.525054 
L 25.410181 -39.570956 
L 26.012568 -39.616327 
L 26.614956 -45.558446 
L 27.217343 -45.651077 
L 27.819731 -45.742201 
L 28.422118 -45.831799 
L 29.024506 -45.919851 
L 29.626893 -46.925844 
L 30.229281 -53.838466 
L 30.831668 -53.838466 
L 31.434056 -53.838466 
L 32.036443 -53.838466 
L 32.638831 -56.486948 
L 33.241218 -59.278196 
L 33.843606 -59.278196 
L 34.445993 -59.278196 
L 35.048381 -59.278196 
L 35.650768 -59.278196 
L 36.253156 -60.246205 
L 36.855544 -61.418044 
L 37.457931 -61.471826 
L 38.060319 -61.525097 
L 38.662706 -61.577851 
L 39.265094 -62.851191 
L 39.867481 -65.255165 
L 40.469869 -65.262486 
L 41.072256 -65.269129 
L 41.674644 -65.2751 
L 42.277031 -68.773006 
L 42.879419 -68.783829 
L 43.481806 -69.541651 
L 44.084194 -69.541651 
L 44.686581 -69.541651 
L 45.288969 -69.587299 
L 45.891356 -69.587299 
L 46.493744 -70.992827 
L 47.096131 -70.992827 
L 47.698519 -70.992827 
L 48.300906 -71.243101 
L 48.903294 -71.243101 
L 49.505681 -71.243101 
L 50.108069 -75.009552 
L 50.710456 -75.009552 
L 51.312844 -75.009552 
L 51.915231 -75.469189 
L 52.517619 -75.469189 
L 53.120006 -75.737053 
L 53.722394 -75.737053 
L 54.324781 -75.737053 
L 54.927169 -75.737053 
L 55.529556 -75.737053 
L 56.131944 -75.737053 
L 56.734331 -76.598277 
L 57.336719 -76.632435 
L 57.939106 -76.828272 
L 58.541494 -76.858579 
L 59.143881 -76.885801 
L 59.746269 -77.9559 
L 60.348656 -77.9559 
L 60.951044 -78.055471 
L 61.553431 -78.055471 
L 62.155819 -78.055471 
L 62.758206 -78.055471 
L 63.360594 -78.170401 
L 63.962982 -78.170401 
L 64.565369 -78.170401 
L 65.167757 -78.170401 
L 65.770144 -78.170401 
L 66.372532 -78.303956 
L 66.974919 -78.37998 
L 67.577307 -78.453585 
L 68.179694 -78.524221 
L 68.782082 -78.591204 
L 69.384469 -78.653707 
L 69.986857 -78.879602 
L 70.589244 -78.879602 
L 71.191632 -78.879602 
L 71.794019 -78.879602 
L 72.396407 -78.879602 
L 72.998794 -79.128087 
L 73.601182 -79.128087 
L 74.203569 -79.128087 
L 74.805957 -79.128087 
L 75.408344 -79.128087 
L 76.010732 -79.128087 
L 76.613119 -79.128087 
L 77.215507 -79.128087 
L 77.817894 -79.128087 
L 78.420282 -79.128087 
L 79.022669 -79.128087 
L 79.625057 -79.625057 
L 79.625057 -79.625057 
L 79.625057 -79.625057 
L 79.022669 -79.625057 
L 78.420282 -79.625057 
L 77.817894 -79.625057 
L 77.215507 -79.625057 
L 76.613119 -79.625057 
L 76.010732 -79.625057 
L 75.408344 -79.625057 
L 74.805957 -79.625057 
L 74.203569 -79.625057 
L 73.601182 -79.625057 
L 72.998794 -79.625057 
L 72.396407 -79.625057 
L 71.794019 -79.625057 
L 71.191632 -79.625057 
L 70.589244 -79.625057 
L 69.986857 -79.625057 
L 69.384469 -79.625057 
L 68.782082 -79.625057 
L 68.179694 -79.625057 
L 67.577307 -79.625057 
L 66.974919 -79.625057 
L 66.372532 -79.625057 
L 65.770144 -79.625057 
L 65.167757 -79.625057 
L 64.565369 -79.625057 
L 63.962982 -79.625057 
L 63.360594 -79.625057 
L 62.758206 -79.625057 
L 62.155819 -79.625057 
L 61.553431 -79.625057 
L 60.951044 -79.625057 
L 60.348656 -79.549533 
L 59.746269 -79.549533 
L 59.143881 -79.625057 
L 58.541494 -79.625057 
L 57.939106 -79.625057 
L 57.336719 -79.625057 
L 56.734331 -79.625057 
L 56.131944 -79.625057 
L 55.529556 -79.625057 
L 54.927169 -79.625057 
L 54.324781 -79.625057 
L 53.722394 -79.625057 
L 53.120006 -79.625057 
L 52.517619 -79.625057 
L 51.915231 -79.625057 
L 51.312844 -79.514063 
L 50.710456 -79.514063 
L 50.108069 -79.514063 
L 49.505681 -79.625057 
L 48.903294 -79.625057 
L 48.300906 -79.625057 
L 47.698519 -79.544456 
L 47.096131 -79.544456 
L 46.493744 -79.544456 
L 45.891356 -79.625057 
L 45.288969 -79.625057 
L 44.686581 -79.504723 
L 44.084194 -79.504723 
L 43.481806 -79.504723 
L 42.879419 -79.494501 
L 42.277031 -79.460145 
L 41.674644 -78.186373 
L 41.072256 -78.147165 
L 40.469869 -78.108629 
L 39.867481 -78.07077 
L 39.265094 -76.950778 
L 38.662706 -75.683517 
L 38.060319 -75.691091 
L 37.457931 -75.699183 
L 36.855544 -75.707786 
L 36.253156 -74.620672 
L 35.650768 -73.33117 
L 35.048381 -73.33117 
L 34.445993 -73.33117 
L 33.843606 -73.33117 
L 33.241218 -73.33117 
L 32.638831 -72.14666 
L 32.036443 -71.564839 
L 31.434056 -71.564839 
L 30.831668 -71.564839 
L 30.229281 -71.564839 
L 29.626893 -68.989858 
L 29.024506 -67.140437 
L 28.422118 -67.138132 
L 27.819731 -67.137371 
L 27.217343 -67.138137 
L 26.614956 -67.14041 
L 26.012568 -54.866235 
L 25.410181 -54.866427 
L 24.807793 -54.86715 
L 24.205406 -54.8684 
L 23.603018 -54.870171 
L 23.000631 -49.63809 
L 22.398243 -49.61177 
L 21.795856 -49.58579 
L 21.193468 -49.560151 
L 20.591081 -49.534854 
L 19.988693 -19.988693 
z
"/>
    </defs>
    <g clip-path="url(#pe0e5bb9712)">
     <use xlink:href="#m66d61122aa" x="0" y="101.27775" style="fill: #84a3cc; fill-opacity: 0.4"/>
    </g>
   </g>
   <g id="matplotlib.axis_1">
    <g id="text_1">
     <text style="font: 6px 'DejaVu Sans', 'Bitstream Vera Sans', 'Computer Modern Sans Serif', 'Lucida Grande', 'Verdana', 'Geneva', 'Lucid', 'Arial', 'Helvetica', 'Avant Garde', sans-serif; text-anchor: middle" x="49.806875" y="92.829938" transform="rotate(-0 49.806875 92.829938)">FPR</text>
    </g>
   </g>
   <g id="matplotlib.axis_2">
    <g id="text_2">
     <text style="font: 6px 'DejaVu Sans', 'Bitstream Vera Sans', 'Computer Modern Sans Serif', 'Lucida Grande', 'Verdana', 'Geneva', 'Lucid', 'Arial', 'Helvetica', 'Avant Garde', sans-serif; text-anchor: middle" x="11.759063" y="51.470875" transform="rotate(-90 11.759063 51.470875)">TPR</text>
    </g>
   </g>
   <g id="line2d_1">
    <path d="M 19.988693 81.289057 
L 20.591081 65.178395 
L 21.193468 65.155806 
L 21.795856 65.133216 
L 22.398243 65.110626 
L 23.000631 65.088037 
L 23.603018 54.126827 
L 24.205406 54.104238 
L 24.807793 54.081648 
L 25.410181 54.059059 
L 26.012568 54.036469 
L 26.614956 44.928322 
L 27.217343 44.883143 
L 27.819731 44.837964 
L 28.422118 44.792785 
L 29.024506 44.747606 
L 29.626893 43.319899 
L 30.229281 38.576097 
L 30.831668 38.576097 
L 31.434056 38.576097 
L 32.036443 38.576097 
L 32.638831 36.960946 
L 33.241218 34.973067 
L 33.843606 34.973067 
L 34.445993 34.973067 
L 35.048381 34.973067 
L 35.650768 34.973067 
L 36.253156 33.844311 
L 36.855544 32.714835 
L 37.457931 32.692245 
L 38.060319 32.669656 
L 38.662706 32.647066 
L 39.265094 31.376766 
L 39.867481 29.614782 
L 40.469869 29.592193 
L 41.072256 29.569603 
L 41.674644 29.547014 
L 42.277031 27.161175 
L 42.879419 27.138585 
L 43.481806 26.754563 
L 44.084194 26.754563 
L 44.686581 26.754563 
L 45.288969 26.630321 
L 45.891356 26.630321 
L 46.493744 26.009108 
L 47.096131 26.009108 
L 47.698519 26.009108 
L 48.300906 25.506852 
L 48.903294 25.506852 
L 49.505681 25.506852 
L 50.108069 24.015943 
L 50.710456 24.015943 
L 51.312844 24.015943 
L 51.915231 23.643215 
L 52.517619 23.643215 
L 53.120006 23.518973 
L 53.722394 23.518973 
L 54.324781 23.518973 
L 54.927169 23.518973 
L 55.529556 23.518973 
L 56.131944 23.518973 
L 56.734331 23.134951 
L 57.336719 23.112361 
L 57.939106 22.965529 
L 58.541494 22.94294 
L 59.143881 22.92035 
L 59.746269 22.525034 
L 60.348656 22.525034 
L 60.951044 22.398148 
L 61.553431 22.398148 
L 62.155819 22.398148 
L 62.758206 22.398148 
L 63.360594 22.273905 
L 63.962982 22.273905 
L 64.565369 22.273905 
L 65.167757 22.273905 
L 65.770144 22.273905 
L 66.372532 22.149663 
L 66.974919 22.127073 
L 67.577307 22.104484 
L 68.179694 22.081894 
L 68.782082 22.059305 
L 69.384469 22.036715 
L 69.986857 21.901178 
L 70.589244 21.901178 
L 71.191632 21.901178 
L 71.794019 21.901178 
L 72.396407 21.901178 
L 72.998794 21.776936 
L 73.601182 21.776936 
L 74.203569 21.776936 
L 74.805957 21.776936 
L 75.408344 21.776936 
L 76.010732 21.776936 
L 76.613119 21.776936 
L 77.215507 21.776936 
L 77.817894 21.776936 
L 78.420282 21.776936 
L 79.022669 21.776936 
L 79.625057 21.652693 
" clip-path="url(#pe0e5bb9712)" style="fill: none; stroke: #84a3cc; stroke-linecap: square"/>
   </g>
   <g id="line2d_2">
    <path d="M 19.988693 81.289057 
L 79.625057 21.652693 
" clip-path="url(#pe0e5bb9712)" style="fill: none; stroke-dasharray: 3.7,1.6; stroke-dashoffset: 0; stroke: #000000"/>
   </g>
   <g id="patch_3">
    <path d="M 17.006875 84.270875 
L 17.006875 18.670875 
" style="fill: none; stroke: #000000; stroke-width: 0.8; stroke-linejoin: miter; stroke-linecap: square"/>
   </g>
   <g id="patch_4">
    <path d="M 82.606875 84.270875 
L 82.606875 18.670875 
" style="fill: none; stroke: #000000; stroke-width: 0.8; stroke-linejoin: miter; stroke-linecap: square"/>
   </g>
   <g id="patch_5">
    <path d="M 17.006875 84.270875 
L 82.606875 84.270875 
" style="fill: none; stroke: #000000; stroke-width: 0.8; stroke-linejoin: miter; stroke-linecap: square"/>
   </g>
   <g id="patch_6">
    <path d="M 17.006875 18.670875 
L 82.606875 18.670875 
" style="fill: none; stroke: #000000; stroke-width: 0.8; stroke-linejoin: miter; stroke-linecap: square"/>
   </g>
   <g id="text_3">
    <text style="font: 7.2px 'DejaVu Sans', 'Bitstream Vera Sans', 'Computer Modern Sans Serif', 'Lucida Grande', 'Verdana', 'Geneva', 'Lucid', 'Arial', 'Helvetica', 'Avant Garde', sans-serif; text-anchor: middle" x="49.806875" y="12.670875" transform="rotate(-0 49.806875 12.670875)">Multimodal</text>
   </g>
   <g id="legend_1">
    <g id="line2d_3">
     <path d="M 43.186875 66.38075 
L 49.186875 66.38075 
L 55.186875 66.38075 
" style="fill: none; stroke: #84a3cc; stroke-linecap: square"/>
    </g>
    <g id="text_4">
     <text style="font: 6px 'DejaVu Sans', 'Bitstream Vera Sans', 'Computer Modern Sans Serif', 'Lucida Grande', 'Verdana', 'Geneva', 'Lucid', 'Arial', 'Helvetica', 'Avant Garde', sans-serif" transform="translate(59.986875 64.4975)">AUC =</text>
     <text style="font: 6px 'DejaVu Sans', 'Bitstream Vera Sans', 'Computer Modern Sans Serif', 'Lucida Grande', 'Verdana', 'Geneva', 'Lucid', 'Arial', 'Helvetica', 'Avant Garde', sans-serif" transform="translate(59.986875 71.216188)">0.85</text>
    </g>
    <g id="patch_7">
     <path d="M 43.186875 80.023063 
L 55.186875 80.023063 
L 55.186875 75.823063 
L 43.186875 75.823063 
z
" style="fill: #84a3cc; fill-opacity: 0.4"/>
    </g>
    <g id="text_5">
     <!-- $\pm$ std. -->
     <g transform="translate(59.986875 80.023063)">
      <text>
       <tspan style="font: 6px 'DejaVu Sans'" x="0 5.027344 6.93457 10.060547 12.413086 16.22168" y="-0.4375">± std.</tspan>
      </text>
     </g>
    </g>
   </g>
  </g>
 </g>
 <defs>
  <clipPath id="pe0e5bb9712">
   <rect x="17.006875" y="18.670875" width="65.6" height="65.6"/>
  </clipPath>
 </defs>
</svg>
