<?xml version="1.0" encoding="utf-8" standalone="no"?>
<!DOCTYPE svg PUBLIC "-//W3C//DTD SVG 1.1//EN"
  "http://www.w3.org/Graphics/SVG/1.1/DTD/svg11.dtd">
<svg xmlns:xlink="http://www.w3.org/1999/xlink" width="122.027625pt" height="101.27775pt" viewBox="0 0 122.027625 101.27775" xmlns="http://www.w3.org/2000/svg" version="1.1">
 <metadata>
  <rdf:RDF xmlns:dc="http://purl.org/dc/elements/1.1/" xmlns:cc="http://creativecommons.org/ns#" xmlns:rdf="http://www.w3.org/1999/02/22-rdf-syntax-ns#">
   <cc:Work>
    <dc:type rdf:resource="http://purl.org/dc/dcmitype/StillImage"/>
    <dc:date>2024-07-30T22:24:40.379865</dc:date>
    <dc:format>image/svg+xml</dc:format>
    <dc:creator>
     <cc:Agent>
      <dc:title>Matplotlib v3.9.0, https://matplotlib.org/</dc:title>
     </cc:Agent>
    </dc:creator>
   </cc:Work>
  </rdf:RDF>
 </metadata>
 <defs>
  <style type="text/css">*{stroke-linejoin: round; stroke-linecap: butt}</style>
 </defs>
 <g id="figure_1">
  <g id="patch_1">
   <path d="M 0 101.27775 
L 122.027625 101.27775 
L 122.027625 0 
L 0 0 
z
" style="fill: #ffffff"/>
  </g>
  <g id="axes_1">
   <g id="patch_2">
    <path d="M 28.213812 84.270875 
L 93.813813 84.270875 
L 93.813813 18.670875 
L 28.213812 18.670875 
z
" style="fill: #ffffff"/>
   </g>
   <g id="PolyCollection_1">
    <defs>
     <path id="meb435b7f78" d="M 31.195631 -19.988693 
L 31.195631 -19.988693 
L 31.798018 -23.918361 
L 32.400406 -23.918361 
L 33.002793 -23.918361 
L 33.605181 -23.918361 
L 34.207568 -23.918361 
L 34.809956 -40.910638 
L 35.412343 -40.910638 
L 36.014731 -40.910638 
L 36.617118 -40.910638 
L 37.219506 -40.910638 
L 37.821893 -46.228679 
L 38.424281 -46.228679 
L 39.026668 -46.228679 
L 39.629056 -46.228679 
L 40.231443 -46.228679 
L 40.833831 -48.724668 
L 41.436218 -51.905044 
L 42.038606 -51.905044 
L 42.640993 -51.905044 
L 43.243381 -51.905044 
L 43.845768 -53.923551 
L 44.448156 -56.887979 
L 45.050543 -56.887979 
L 45.652931 -56.887979 
L 46.255318 -56.887979 
L 46.857706 -56.887979 
L 47.460093 -60.407856 
L 48.062481 -61.379333 
L 48.664869 -61.379333 
L 49.267256 -61.379333 
L 49.869644 -61.379333 
L 50.472031 -62.616414 
L 51.074419 -64.235877 
L 51.676806 -64.235877 
L 52.279194 -64.235877 
L 52.881581 -64.235877 
L 53.483969 -66.586607 
L 54.086356 -66.586607 
L 54.688744 -67.988938 
L 55.291131 -67.988938 
L 55.893519 -67.988938 
L 56.495906 -68.16357 
L 57.098294 -68.16357 
L 57.700681 -69.811051 
L 58.303069 -69.811051 
L 58.905456 -69.811051 
L 59.507844 -69.927516 
L 60.110231 -69.927516 
L 60.712619 -69.927516 
L 61.315006 -74.147709 
L 61.917394 -74.147709 
L 62.519781 -74.147709 
L 63.122169 -74.371912 
L 63.724556 -74.371912 
L 64.326944 -75.310836 
L 64.929331 -75.310836 
L 65.531719 -75.310836 
L 66.134106 -75.343415 
L 66.736494 -75.343415 
L 67.338881 -75.343415 
L 67.941269 -75.928752 
L 68.543656 -75.928752 
L 69.146044 -76.45976 
L 69.748431 -76.45976 
L 70.350819 -76.45976 
L 70.953206 -77.781305 
L 71.555594 -77.781305 
L 72.157981 -77.885663 
L 72.760369 -77.885663 
L 73.362756 -77.885663 
L 73.965144 -77.885663 
L 74.567532 -78.303956 
L 75.169919 -78.303956 
L 75.772307 -78.303956 
L 76.374694 -78.303956 
L 76.977082 -78.303956 
L 77.579469 -78.682979 
L 78.181857 -78.682979 
L 78.784244 -78.682979 
L 79.386632 -78.682979 
L 79.989019 -78.682979 
L 80.591407 -78.682979 
L 81.193794 -79.128087 
L 81.796182 -79.128087 
L 82.398569 -79.128087 
L 83.000957 -79.128087 
L 83.603344 -79.128087 
L 84.205732 -79.128087 
L 84.808119 -79.128087 
L 85.410507 -79.128087 
L 86.012894 -79.128087 
L 86.615282 -79.128087 
L 87.217669 -79.128087 
L 87.820057 -79.128087 
L 88.422444 -79.128087 
L 89.024832 -79.128087 
L 89.627219 -79.128087 
L 90.229607 -79.128087 
L 90.831994 -79.625057 
L 90.831994 -79.625057 
L 90.831994 -79.625057 
L 90.229607 -79.625057 
L 89.627219 -79.625057 
L 89.024832 -79.625057 
L 88.422444 -79.625057 
L 87.820057 -79.625057 
L 87.217669 -79.625057 
L 86.615282 -79.625057 
L 86.012894 -79.625057 
L 85.410507 -79.625057 
L 84.808119 -79.625057 
L 84.205732 -79.625057 
L 83.603344 -79.625057 
L 83.000957 -79.625057 
L 82.398569 -79.625057 
L 81.796182 -79.625057 
L 81.193794 -79.625057 
L 80.591407 -79.625057 
L 79.989019 -79.625057 
L 79.386632 -79.625057 
L 78.784244 -79.625057 
L 78.181857 -79.625057 
L 77.579469 -79.625057 
L 76.977082 -79.625057 
L 76.374694 -79.625057 
L 75.772307 -79.625057 
L 75.169919 -79.625057 
L 74.567532 -79.625057 
L 73.965144 -79.625057 
L 73.362756 -79.625057 
L 72.760369 -79.625057 
L 72.157981 -79.625057 
L 71.555594 -79.625057 
L 70.953206 -79.625057 
L 70.350819 -79.625057 
L 69.748431 -79.625057 
L 69.146044 -79.625057 
L 68.543656 -79.625057 
L 67.941269 -79.625057 
L 67.338881 -79.625057 
L 66.736494 -79.625057 
L 66.134106 -79.625057 
L 65.531719 -79.45069 
L 64.929331 -79.45069 
L 64.326944 -79.45069 
L 63.724556 -79.625057 
L 63.122169 -79.625057 
L 62.519781 -79.371392 
L 61.917394 -79.371392 
L 61.315006 -79.371392 
L 60.712619 -79.625057 
L 60.110231 -79.625057 
L 59.507844 -79.625057 
L 58.905456 -79.625057 
L 58.303069 -79.625057 
L 57.700681 -79.625057 
L 57.098294 -79.625057 
L 56.495906 -79.625057 
L 55.893519 -79.625057 
L 55.291131 -79.625057 
L 54.688744 -79.625057 
L 54.086356 -79.625057 
L 53.483969 -79.625057 
L 52.881581 -78.096119 
L 52.279194 -78.096119 
L 51.676806 -78.096119 
L 51.074419 -78.096119 
L 50.472031 -76.982249 
L 49.869644 -75.972393 
L 49.267256 -75.972393 
L 48.664869 -75.972393 
L 48.062481 -75.972393 
L 47.460093 -74.707506 
L 46.857706 -73.225964 
L 46.255318 -73.225964 
L 45.652931 -73.225964 
L 45.050543 -73.225964 
L 44.448156 -73.225964 
L 43.845768 -70.972211 
L 43.243381 -69.252871 
L 42.640993 -69.252871 
L 42.038606 -69.252871 
L 41.436218 -69.252871 
L 40.833831 -66.469611 
L 40.231443 -65.983782 
L 39.629056 -65.983782 
L 39.026668 -65.983782 
L 38.424281 -65.983782 
L 37.821893 -65.983782 
L 37.219506 -57.56114 
L 36.617118 -57.56114 
L 36.014731 -57.56114 
L 35.412343 -57.56114 
L 34.809956 -57.56114 
L 34.207568 -47.695904 
L 33.605181 -47.695904 
L 33.002793 -47.695904 
L 32.400406 -47.695904 
L 31.798018 -47.695904 
L 31.195631 -19.988693 
z
"/>
    </defs>
    <g clip-path="url(#p28858b3f53)">
     <use xlink:href="#meb435b7f78" x="0" y="101.27775" style="fill: #84a3cc; fill-opacity: 0.4"/>
    </g>
   </g>
   <g id="matplotlib.axis_1">
    <g id="text_1">
     <text style="font: 6px 'DejaVu Sans', 'Bitstream Vera Sans', 'Computer Modern Sans Serif', 'Lucida Grande', 'Verdana', 'Geneva', 'Lucid', 'Arial', 'Helvetica', 'Avant Garde', sans-serif; text-anchor: middle" x="61.013813" y="92.829938" transform="rotate(-0 61.013813 92.829938)">FPR</text>
    </g>
   </g>
   <g id="matplotlib.axis_2">
    <g id="text_2">
     <text style="font: 6px 'DejaVu Sans', 'Bitstream Vera Sans', 'Computer Modern Sans Serif', 'Lucida Grande', 'Verdana', 'Geneva', 'Lucid', 'Arial', 'Helvetica', 'Avant Garde', sans-serif; text-anchor: middle" x="22.966" y="51.470875" transform="rotate(-90 22.966 51.470875)">TPR</text>
    </g>
   </g>
   <g id="line2d_1">
    <path d="M 31.195631 81.289057 
L 31.798018 65.470617 
L 32.400406 65.470617 
L 33.002793 65.470617 
L 33.605181 65.470617 
L 34.207568 65.470617 
L 34.809956 52.041861 
L 35.412343 52.041861 
L 36.014731 52.041861 
L 36.617118 52.041861 
L 37.219506 52.041861 
L 37.821893 45.17152 
L 38.424281 45.17152 
L 39.026668 45.17152 
L 39.629056 45.17152 
L 40.231443 45.17152 
L 40.833831 43.680611 
L 41.436218 40.698792 
L 42.038606 40.698792 
L 42.640993 40.698792 
L 43.243381 40.698792 
L 43.845768 38.829869 
L 44.448156 36.220778 
L 45.050543 36.220778 
L 45.652931 36.220778 
L 46.255318 36.220778 
L 46.857706 36.220778 
L 47.460093 33.720069 
L 48.062481 32.601887 
L 48.664869 32.601887 
L 49.267256 32.601887 
L 49.869644 32.601887 
L 50.472031 31.478419 
L 51.074419 30.111752 
L 51.676806 30.111752 
L 52.279194 30.111752 
L 52.881581 30.111752 
L 53.483969 28.123873 
L 54.086356 28.123873 
L 54.688744 27.378419 
L 55.291131 27.378419 
L 55.893519 27.378419 
L 56.495906 27.003048 
L 57.098294 27.003048 
L 57.700681 26.381836 
L 58.303069 26.381836 
L 58.905456 26.381836 
L 59.507844 26.257593 
L 60.110231 26.257593 
L 60.712619 26.257593 
L 61.315006 24.518199 
L 61.917394 24.518199 
L 62.519781 24.518199 
L 63.122169 24.269714 
L 63.724556 24.269714 
L 64.326944 23.896987 
L 64.929331 23.896987 
L 65.531719 23.896987 
L 66.134106 23.772745 
L 66.736494 23.772745 
L 67.338881 23.772745 
L 67.941269 23.400017 
L 68.543656 23.400017 
L 69.146044 23.022003 
L 69.748431 23.022003 
L 70.350819 23.022003 
L 70.953206 22.525034 
L 71.555594 22.525034 
L 72.157981 22.398148 
L 72.760369 22.398148 
L 73.362756 22.398148 
L 73.965144 22.398148 
L 74.567532 22.149663 
L 75.169919 22.149663 
L 75.772307 22.149663 
L 76.374694 22.149663 
L 76.977082 22.149663 
L 77.579469 22.02542 
L 78.181857 22.02542 
L 78.784244 22.02542 
L 79.386632 22.02542 
L 79.989019 22.02542 
L 80.591407 22.02542 
L 81.193794 21.776936 
L 81.796182 21.776936 
L 82.398569 21.776936 
L 83.000957 21.776936 
L 83.603344 21.776936 
L 84.205732 21.776936 
L 84.808119 21.776936 
L 85.410507 21.776936 
L 86.012894 21.776936 
L 86.615282 21.776936 
L 87.217669 21.776936 
L 87.820057 21.776936 
L 88.422444 21.776936 
L 89.024832 21.776936 
L 89.627219 21.776936 
L 90.229607 21.776936 
L 90.831994 21.652693 
" clip-path="url(#p28858b3f53)" style="fill: none; stroke: #84a3cc; stroke-linecap: square"/>
   </g>
   <g id="line2d_2">
    <path d="M 31.195631 81.289057 
L 90.831994 21.652693 
" clip-path="url(#p28858b3f53)" style="fill: none; stroke-dasharray: 3.7,1.6; stroke-dashoffset: 0; stroke: #000000"/>
   </g>
   <g id="patch_3">
    <path d="M 28.213812 84.270875 
L 28.213812 18.670875 
" style="fill: none; stroke: #000000; stroke-width: 0.8; stroke-linejoin: miter; stroke-linecap: square"/>
   </g>
   <g id="patch_4">
    <path d="M 93.813813 84.270875 
L 93.813813 18.670875 
" style="fill: none; stroke: #000000; stroke-width: 0.8; stroke-linejoin: miter; stroke-linecap: square"/>
   </g>
   <g id="patch_5">
    <path d="M 28.213812 84.270875 
L 93.813813 84.270875 
" style="fill: none; stroke: #000000; stroke-width: 0.8; stroke-linejoin: miter; stroke-linecap: square"/>
   </g>
   <g id="patch_6">
    <path d="M 28.213812 18.670875 
L 93.813813 18.670875 
" style="fill: none; stroke: #000000; stroke-width: 0.8; stroke-linejoin: miter; stroke-linecap: square"/>
   </g>
   <g id="text_3">
    <text style="font: 7.2px 'DejaVu Sans', 'Bitstream Vera Sans', 'Computer Modern Sans Serif', 'Lucida Grande', 'Verdana', 'Geneva', 'Lucid', 'Arial', 'Helvetica', 'Avant Garde', sans-serif; text-anchor: middle" x="61.013813" y="12.670875" transform="rotate(-0 61.013813 12.670875)">adjuvant_therapy_multimodal</text>
   </g>
   <g id="legend_1">
    <g id="line2d_3">
     <path d="M 54.393813 66.38075 
L 60.393813 66.38075 
L 66.393813 66.38075 
" style="fill: none; stroke: #84a3cc; stroke-linecap: square"/>
    </g>
    <g id="text_4">
     <text style="font: 6px 'DejaVu Sans', 'Bitstream Vera Sans', 'Computer Modern Sans Serif', 'Lucida Grande', 'Verdana', 'Geneva', 'Lucid', 'Arial', 'Helvetica', 'Avant Garde', sans-serif" transform="translate(71.193813 64.4975)">AUC =</text>
     <text style="font: 6px 'DejaVu Sans', 'Bitstream Vera Sans', 'Computer Modern Sans Serif', 'Lucida Grande', 'Verdana', 'Geneva', 'Lucid', 'Arial', 'Helvetica', 'Avant Garde', sans-serif" transform="translate(71.193813 71.216188)"> 0.84</text>
    </g>
    <g id="patch_7">
     <path d="M 54.393813 80.023063 
L 66.393813 80.023063 
L 66.393813 75.823063 
L 54.393813 75.823063 
z
" style="fill: #84a3cc; fill-opacity: 0.4"/>
    </g>
    <g id="text_5">
     <!-- $\pm$ std. -->
     <g transform="translate(71.193813 80.023063)">
      <text>
       <tspan style="font: 6px 'DejaVu Sans'" x="0 5.027344 6.93457 10.060547 12.413086 16.22168" y="-0.4375">± std.</tspan>
      </text>
     </g>
    </g>
   </g>
  </g>
 </g>
 <defs>
  <clipPath id="p28858b3f53">
   <rect x="28.213812" y="18.670875" width="65.6" height="65.6"/>
  </clipPath>
 </defs>
</svg>
